<?xml version="1.0" encoding="utf-8"?>
<!-- Generator: Adobe Illustrator 16.0.3, SVG Export Plug-In . SVG Version: 6.00 Build 0)  -->
<!DOCTYPE svg PUBLIC "-//W3C//DTD SVG 1.1//EN" "http://www.w3.org/Graphics/SVG/1.1/DTD/svg11.dtd">
<svg version="1.1" id="レイヤー_1" xmlns="http://www.w3.org/2000/svg" xmlns:xlink="http://www.w3.org/1999/xlink" x="0px"
	 y="0px" width="272px" height="80px" viewBox="0 0 272 80" enable-background="new 0 0 272 80" xml:space="preserve">
<g>
	<path fill="#73B487" d="M20.303,29.65c-1.792,0-4.224-0.384-4.224-3.072c0-2.624,2.176-3.072,4.224-3.072h8.447
		c3.2,0,5.504,0.32,7.936,2.752c2.368,2.368,2.688,4.224,2.752,7.295l0.64,20.862C40.141,56.208,39.245,58,37.197,58
		c-1.6,0-3.2-1.344-3.136-3.072l-4.224,2.177C28.11,58,28.046,58,26.063,58h-5.888c-2.752,0-4.736-0.32-6.976-2.176
		c-2.56-2.112-3.2-4.352-3.2-7.552v-2.688c0-2.944,0.704-4.8,3.008-6.848c2.112-1.856,4.479-2.304,7.167-2.304h13.183v-1.408
		c0-4.608-1.024-5.376-5.44-5.376H20.303z M20.239,42.577c-1.664,0-4.096,0.448-4.096,2.688v4.096c0,2.047,2.496,2.495,3.968,2.495
		h6.783l6.784-3.52v-1.344c0-3.392-0.96-4.416-4.352-4.416H20.239z"/>
	<path fill="#73B487" d="M41.999,37.777c0-3.775,0.704-5.631,3.647-8.063l4.544-3.775c2.88-2.368,4.352-2.432,7.936-2.432h9.727
		c2.048,0,4.224,0.448,4.224,3.072c0,2.688-2.432,3.072-4.224,3.072H57.037c-1.216,0-2.432,0.64-3.52,1.536l-3.712,3.136
		c-0.96,0.768-1.664,1.408-1.664,2.624v7.616c0,1.216,0.704,1.856,1.664,2.624l3.712,3.136c1.088,0.896,2.304,1.536,3.52,1.536
		h10.815c1.792,0,4.224,0.384,4.224,3.071c0,2.624-2.176,3.072-4.224,3.072h-9.727c-3.584,0-5.056-0.064-7.936-2.432l-4.544-3.776
		c-2.944-2.431-3.647-4.287-3.647-8.063V37.777z"/>
	<path fill="#73B487" d="M73.998,37.777c0-3.775,0.704-5.631,3.647-8.063l4.544-3.775c2.88-2.368,4.352-2.432,7.936-2.432h9.727
		c2.048,0,4.224,0.448,4.224,3.072c0,2.688-2.432,3.072-4.224,3.072H89.036c-1.216,0-2.432,0.64-3.52,1.536l-3.712,3.136
		c-0.96,0.768-1.664,1.408-1.664,2.624v7.616c0,1.216,0.704,1.856,1.664,2.624l3.712,3.136c1.088,0.896,2.304,1.536,3.52,1.536
		h10.815c1.792,0,4.224,0.384,4.224,3.071c0,2.624-2.176,3.072-4.224,3.072h-9.727c-3.584,0-5.056-0.064-7.936-2.432l-4.544-3.776
		c-2.944-2.431-3.647-4.287-3.647-8.063V37.777z"/>
	<path fill="#73B487" d="M117.26,58c-2.56,0-3.584,0-5.504-1.664l-2.624-2.304c-2.432-2.176-3.136-3.584-3.136-6.912V35.282
		c0-3.264,0.448-5.184,3.008-7.359l2.176-1.856c2.88-2.496,4.288-2.56,6.784-2.56h5.632c3.007,0,4.415,0.32,6.783,2.24l2.496,1.984
		c2.815,2.24,3.199,4.608,3.199,8v4.928c0,3.52-0.576,4.544-4.224,4.544H112.14v2.048c0,0.576,0.448,1.344,0.896,1.792l1.536,1.663
		c0.832,0.896,2.048,1.152,4.096,1.152h13.183c2.048,0,4.224,0.448,4.224,3.071c0,2.688-2.432,3.072-4.224,3.072H117.26z
		 M112.14,39.058h17.791v-3.712c0-1.152,0.064-2.112-0.768-2.88l-2.368-2.048c-0.768-0.704-1.983-0.768-2.943-0.768h-5.184
		c-1.152,0-2.112,0-3.136,0.704l-2.112,1.536c-0.768,0.576-1.28,1.024-1.28,2.816V39.058z"/>
	<path fill="#73B487" d="M148.491,29.65c-1.28,0-3.456-0.256-3.456,1.728c0,1.024,0.768,1.408,1.664,1.792l15.358,6.976
		c3.968,1.792,6.016,4.288,6.016,8.703c0,6.208-4.224,9.151-10.111,9.151h-9.471c-3.2,0-5.376-0.128-7.68-1.92
		c-1.152-0.896-2.816-2.048-2.816-3.584c0-1.728,1.473-3.071,3.2-3.071c0.96,0,1.664,0.319,2.368,1.088
		c1.088,1.216,3.008,1.344,4.928,1.344h8.319c2.176,0,5.119,0.192,5.119-3.392c0-1.472-1.792-2.432-3.199-3.072l-14.464-6.592
		c-3.392-1.536-5.375-3.52-5.375-7.487c0-4.864,3.84-7.808,8.447-7.808h10.495c3.392,0,4.8,0.192,7.104,2.112
		c1.152,0.96,2.432,1.728,2.432,3.456c0,1.728-1.472,3.072-3.136,3.072c-1.151,0-1.855-0.448-2.624-1.28
		c-1.023-1.088-2.111-1.216-3.775-1.216H148.491z"/>
	<path fill="#73B487" d="M180.49,29.65c-1.28,0-3.456-0.256-3.456,1.728c0,1.024,0.768,1.408,1.664,1.792l15.358,6.976
		c3.968,1.792,6.016,4.288,6.016,8.703c0,6.208-4.224,9.151-10.111,9.151h-9.471c-3.2,0-5.376-0.128-7.68-1.92
		c-1.152-0.896-2.816-2.048-2.816-3.584c0-1.728,1.473-3.071,3.2-3.071c0.96,0,1.664,0.319,2.368,1.088
		c1.088,1.216,3.008,1.344,4.928,1.344h8.319c2.176,0,5.119,0.192,5.119-3.392c0-1.472-1.792-2.432-3.199-3.072l-14.464-6.592
		c-3.392-1.536-5.375-3.52-5.375-7.487c0-4.864,3.84-7.808,8.447-7.808h10.495c3.392,0,4.8,0.192,7.104,2.112
		c1.152,0.96,2.432,1.728,2.432,3.456c0,1.728-1.472,3.072-3.136,3.072c-1.151,0-1.855-0.448-2.624-1.28
		c-1.023-1.088-2.111-1.216-3.775-1.216H180.49z"/>
	<path fill="#73B487" d="M213.257,58c-2.56,0-3.584,0-5.504-1.664l-2.624-2.304c-2.432-2.176-3.136-3.584-3.136-6.912V35.282
		c0-3.264,0.448-5.184,3.008-7.359l2.176-1.856c2.88-2.496,4.288-2.56,6.784-2.56h5.631c3.008,0,4.416,0.32,6.784,2.24l2.496,1.984
		c2.815,2.24,3.199,4.608,3.199,8v4.928c0,3.52-0.576,4.544-4.224,4.544h-19.711v2.048c0,0.576,0.448,1.344,0.896,1.792l1.536,1.663
		c0.831,0.896,2.048,1.152,4.096,1.152h13.183c2.048,0,4.224,0.448,4.224,3.071c0,2.688-2.432,3.072-4.224,3.072H213.257z
		 M208.137,39.058h17.791v-3.712c0-1.152,0.064-2.112-0.768-2.88l-2.368-2.048c-0.768-0.704-1.983-0.768-2.943-0.768h-5.184
		c-1.152,0-2.112,0-3.136,0.704l-2.112,1.536c-0.768,0.576-1.28,1.024-1.28,2.816V39.058z"/>
	<path fill="#73B487" d="M244.489,29.65c-1.28,0-3.456-0.256-3.456,1.728c0,1.024,0.768,1.408,1.664,1.792l15.358,6.976
		c3.968,1.792,6.016,4.288,6.016,8.703c0,6.208-4.224,9.151-10.111,9.151h-9.471c-3.2,0-5.376-0.128-7.68-1.92
		c-1.152-0.896-2.816-2.048-2.816-3.584c0-1.728,1.473-3.071,3.2-3.071c0.96,0,1.664,0.319,2.368,1.088
		c1.088,1.216,3.008,1.344,4.928,1.344h8.319c2.176,0,5.119,0.192,5.119-3.392c0-1.472-1.792-2.432-3.199-3.072l-14.464-6.592
		c-3.392-1.536-5.375-3.52-5.375-7.487c0-4.864,3.84-7.808,8.447-7.808h10.495c3.392,0,4.8,0.192,7.104,2.112
		c1.152,0.96,2.432,1.728,2.432,3.456c0,1.728-1.472,3.072-3.136,3.072c-1.151,0-1.855-0.448-2.624-1.28
		c-1.023-1.088-2.111-1.216-3.775-1.216H244.489z"/>
</g>
<g>
</g>
<g>
</g>
<g>
</g>
<g>
</g>
<g>
</g>
<g>
</g>
</svg>
